<svg width="15" height="14" viewBox="0 0 15 14" fill="none" xmlns="http://www.w3.org/2000/svg">
<path fill-rule="evenodd" clip-rule="evenodd" d="M11.9943 1.75H3.00189C2.36319 1.75 2.01678 2.49737 2.42959 2.98474L5.28921 6.36093C5.74814 6.90276 6.00001 7.58981 6.00001 8.29988V11.4984C6.00001 12.0453 6.56656 12.4083 7.06344 12.1797L8.56344 11.4897C8.82952 11.3673 9.00001 11.1012 9.00001 10.8084V8.29939C9.00001 7.58992 9.25144 6.90341 9.70968 6.36176L12.5669 2.98441C12.9793 2.49696 12.6328 1.75 11.9943 1.75ZM3.00189 0.25H11.9943C13.9098 0.25 14.9492 2.49086 13.7121 3.95322L10.8548 7.33057C10.6257 7.6014 10.5 7.94465 10.5 8.29939V10.8084C10.5 11.687 9.98854 12.4853 9.1903 12.8525L7.69029 13.5425C6.19965 14.2282 4.50001 13.1392 4.50001 11.4984V8.29988C4.50001 7.94485 4.37407 7.60132 4.14461 7.3304L1.28498 3.95422C0.0465843 2.49212 1.0858 0.25 3.00189 0.25Z" fill="#292929"/>
</svg>
