<svg width="16" height="17" viewBox="0 0 16 17" fill="none" xmlns="http://www.w3.org/2000/svg">
<path d="M2 8.5C2 8.13181 2.29848 7.83333 2.66667 7.83333H13.3333C13.7015 7.83333 14 8.13181 14 8.5C14 8.86819 13.7015 9.16667 13.3333 9.16667H2.66667C2.29848 9.16667 2 8.86819 2 8.5Z" fill="#FCB813"/>
<path fill-rule="evenodd" clip-rule="evenodd" d="M5.3334 2.5L5.24168 2.49997C4.71142 2.49968 4.31765 2.49947 3.97655 2.59087C3.0563 2.83745 2.33751 3.55624 2.09093 4.47649C1.99953 4.81759 1.99974 5.21136 2.00003 5.74162L2.00006 5.83334C2.00006 6.20153 2.29854 6.5 2.66673 6.5C3.03492 6.5 3.3334 6.20153 3.3334 5.83334C3.3334 5.17043 3.33912 4.96976 3.37883 4.82158C3.50212 4.36145 3.86152 4.00206 4.32164 3.87877C4.46982 3.83906 4.6705 3.83334 5.3334 3.83334C5.70159 3.83334 6.00006 3.53486 6.00006 3.16667C6.00006 2.79848 5.70159 2.5 5.3334 2.5ZM10.6667 14.5L10.7585 14.5H10.7585C11.2887 14.5003 11.6825 14.5005 12.0236 14.4091C12.9438 14.1626 13.6626 13.4438 13.9092 12.5235C14.0006 12.1824 14.0004 11.7886 14.0001 11.2584L14.0001 11.1667C14.0001 10.7985 13.7016 10.5 13.3334 10.5C12.9652 10.5 12.6667 10.7985 12.6667 11.1667C12.6667 11.8296 12.661 12.0302 12.6213 12.1784C12.498 12.6386 12.1386 12.9979 11.6785 13.1212C11.5303 13.1609 11.3296 13.1667 10.6667 13.1667C10.2985 13.1667 10.0001 13.4651 10.0001 13.8333C10.0001 14.2015 10.2985 14.5 10.6667 14.5ZM2.00003 11.2584L2.00006 11.1667C2.00006 10.7985 2.29854 10.5 2.66673 10.5C3.03492 10.5 3.3334 10.7985 3.3334 11.1667C3.3334 11.8296 3.33912 12.0302 3.37883 12.1784C3.50212 12.6386 3.86152 12.9979 4.32164 13.1212C4.46982 13.1609 4.6705 13.1667 5.3334 13.1667C5.70159 13.1667 6.00006 13.4651 6.00006 13.8333C6.00006 14.2015 5.70159 14.5 5.3334 14.5L5.24168 14.5H5.24166C4.71141 14.5003 4.31764 14.5005 3.97655 14.4091C3.0563 14.1626 2.33751 13.4438 2.09093 12.5235C1.99953 12.1824 1.99974 11.7886 2.00003 11.2584ZM14.0001 5.83334L14.0001 5.74162V5.7416C14.0004 5.21135 14.0006 4.81758 13.9092 4.47649C13.6626 3.55624 12.9438 2.83745 12.0236 2.59087C11.6825 2.49947 11.2887 2.49968 10.7585 2.49997L10.6668 2.5L10.6667 2.5C10.2985 2.5 10.0001 2.79848 10.0001 3.16667C10.0001 3.53486 10.2985 3.83334 10.6667 3.83334C11.3296 3.83334 11.5303 3.83906 11.6785 3.87877C12.1386 4.00206 12.498 4.36146 12.6213 4.82158C12.661 4.96976 12.6667 5.17043 12.6667 5.83334C12.6667 6.20153 12.9652 6.5 13.3334 6.5C13.7016 6.5 14.0001 6.20153 14.0001 5.83334Z" fill="#FCB813"/>
</svg>
