<svg width="19" height="18" viewBox="0 0 19 18" fill="none" xmlns="http://www.w3.org/2000/svg">
<path d="M10.4697 13.2803C10.1768 12.9874 10.1768 12.5126 10.4697 12.2197C10.7626 11.9268 11.2374 11.9268 11.5303 12.2197L12.5 13.1893V6.75C12.5 6.33579 12.8358 6 13.25 6C13.6642 6 14 6.33579 14 6.75V13.1893L14.9697 12.2197C15.2626 11.9268 15.7374 11.9268 16.0303 12.2197C16.3232 12.5126 16.3232 12.9874 16.0303 13.2803L13.7803 15.5303C13.4874 15.8232 13.0126 15.8232 12.7197 15.5303L10.4697 13.2803Z" fill="#292929"/>
<path d="M8.53033 4.71967C8.82322 5.01256 8.82322 5.48744 8.53033 5.78033C8.23744 6.07322 7.76256 6.07322 7.46967 5.78033L6.5 4.81066L6.5 11.25C6.5 11.6642 6.16421 12 5.75 12C5.33579 12 5 11.6642 5 11.25L5 4.81066L4.03033 5.78033C3.73744 6.07322 3.26256 6.07322 2.96967 5.78033C2.67678 5.48744 2.67678 5.01256 2.96967 4.71967L5.21967 2.46967C5.51256 2.17678 5.98744 2.17678 6.28033 2.46967L8.53033 4.71967Z" fill="#292929"/>
</svg>
