<svg width="62" height="51" viewBox="0 0 62 51" fill="none" xmlns="http://www.w3.org/2000/svg">
<path d="M9.2666 5.68401L52.3277 0.0409229L54.6523 17.7799L11.5913 23.423L9.2666 5.68401Z" fill="#04924F"/>
<path d="M54.6152 17.7861L49.6652 18.4342L30.0513 20.9988V2.96537L52.2962 0.0548706L54.0269 13.2935L54.6152 17.7861Z" fill="#0C6B50"/>
<path d="M5.16309 9.62024L48.3544 5.36622L50.1068 23.1589L6.91553 27.4129L5.16309 9.62024Z" fill="#7BCC29"/>
<path d="M50.1307 23.1386L30.0513 25.1247V7.15426L48.3708 5.34267L49.1239 12.9591L49.6652 18.4343L50.1307 23.1386Z" fill="#04924F"/>
<path d="M51.9414 50.7731H6.70434C3.017 50.7731 0 47.7562 0 44.0687V19.6638C0 15.9764 3.017 12.9596 6.70434 12.9596H51.9414C55.6287 12.9596 58.6457 15.9766 58.6457 19.6638V44.0687C58.6456 47.7562 55.6287 50.7731 51.9414 50.7731Z" fill="#FFDC00"/>
<path d="M58.6456 19.664V44.0691C58.6456 47.7553 55.6285 50.7725 51.9406 50.7725H30.0513V12.959H51.9406C52.6679 12.959 53.3692 13.077 54.027 13.2936C56.7015 14.1759 58.6456 16.7034 58.6456 19.664Z" fill="#FCB813"/>
<path fill-rule="evenodd" clip-rule="evenodd" d="M30.6035 30.4098V17.8063L25.202 24.1075L30.6035 30.4098Z" fill="#FCB813"/>
<path fill-rule="evenodd" clip-rule="evenodd" d="M25.2021 37.6119V23.2079L18.0001 30.4093L25.2021 37.6119Z" fill="#FCB813"/>
<path fill-rule="evenodd" clip-rule="evenodd" d="M30.6035 44.8138V30.4098L25.202 37.6108L30.6035 44.8138Z" fill="#FCB813"/>
<path fill-rule="evenodd" clip-rule="evenodd" d="M25.2021 50.2154V37.6118L18.0001 43.9128L25.2021 50.2154Z" fill="#FCB813"/>
<path fill-rule="evenodd" clip-rule="evenodd" d="M25.2021 25.0083V12.4048L18.0001 18.7063L25.2021 25.0083Z" fill="#FCB813"/>
<path d="M61.9457 42.5877H46.6943C40.5172 42.5877 35.5098 37.5802 35.5098 31.4032C35.5098 25.2262 40.5172 20.2187 46.6943 20.2187H61.9457V42.5877Z" fill="#FF8A00"/>
<path d="M47.6668 36.797C50.6458 36.797 53.0607 34.3821 53.0607 31.4032C53.0607 28.4242 50.6458 26.0093 47.6668 26.0093C44.6879 26.0093 42.2729 28.4242 42.2729 31.4032C42.2729 34.3821 44.6879 36.797 47.6668 36.797Z" fill="#FFB531"/>
</svg>
